<?xml version="1.0" encoding="utf-8"?>
<!-- Generator: Adobe Illustrator 24.3.0, SVG Export Plug-In . SVG Version: 6.00 Build 0)  -->
<svg version="1.1" id="Слой_1" xmlns="http://www.w3.org/2000/svg" xmlns:xlink="http://www.w3.org/1999/xlink" x="0px" y="0px"
	 viewBox="0 0 68 68" style="enable-background:new 0 0 68 68;" xml:space="preserve">
<style type="text/css">
	.st0{fill:#FFFFFF;}
	.st1{fill:#EEEEEE;}
	.st2{fill:#838383;}
	.st3{fill:#414141;}
</style>
<path class="st0" d="M22.1,3.3h23.8c12.6,0.4,18.9,7.2,18.8,20.1v21.1c0,13.4-6.7,20.1-20.2,20.1H23.4c-12.9,0-19.6-6.2-20-18.7V22
	C3.8,9.9,10,3.6,22.1,3.3 M40,34c0-3.3-2.7-6-6-6c-1.6,0-3.1,0.6-4.3,1.8C28.6,30.9,28,32.4,28,34l0,0.5l0,0.4
	c0.2,1.3,0.7,2.4,1.6,3.3c2.3,2.3,6.1,2.4,8.5,0c0,0,0,0,0,0c0.9-0.9,1.5-2,1.7-3.2v-0.5L40,34"/>
<path class="st1" d="M22.1,3.3C10,3.6,3.8,9.9,3.3,22v24c0.4,12.5,7.1,18.7,20,18.7h21.2c13.4,0,20.2-6.7,20.2-20.2V23.4
	c0-13-6.3-19.7-18.8-20.1H22.1 M21.6,2h34.6c6.6,0,9.8,3.3,9.8,9.9v44.3c0,6.6-3.3,9.8-9.8,9.8H11.9C5.3,66,2,62.7,2,56.2V11.9
	C2,5.3,5.3,2,11.9,2H21.6"/>
<path class="st2" d="M21.6,2h-9.7C5.3,2,2,5.3,2,11.9v44.3c0,6.6,3.3,9.8,9.8,9.8h44.3c6.6,0,9.8-3.3,9.8-9.8V11.9
	C66,5.3,62.7,2,56.2,2H21.6 M23,0h33.1C64,0,68,4,68,11.9v44.3C68,64,64,68,56.2,68H11.9C4,68,0,63.7,0.1,55.2V11.9
	C0.1,4,4,0,11.9,0H23"/>
<path class="st3" d="M40,34v0.5V35c-0.2,1.2-0.8,2.3-1.7,3.2c-2.3,2.3-6.1,2.4-8.5,0c0,0,0,0,0,0c-0.9-0.9-1.5-2.1-1.7-3.3l0-0.4
	L28,34c0-3.3,2.7-6,6-6c1.6,0,3.1,0.6,4.3,1.8C39.4,30.9,40,32.4,40,34"/>
</svg>
