<?xml version="1.0" encoding="utf-8"?>
<!-- Generator: Adobe Illustrator 24.3.0, SVG Export Plug-In . SVG Version: 6.00 Build 0)  -->
<svg version="1.1" id="Слой_1" xmlns="http://www.w3.org/2000/svg" xmlns:xlink="http://www.w3.org/1999/xlink" x="0px" y="0px"
	 viewBox="0 0 67.9 68" style="enable-background:new 0 0 67.9 68;" xml:space="preserve">
<style type="text/css">
	.st0{fill:#FFFFFF;}
	.st1{fill:#EEEEEE;}
	.st2{fill:#838383;}
	.st3{fill:#414141;}
</style>
<path class="st0" d="M22.1,3.3h23.8c12.5,0.4,18.8,7.2,18.8,20.1v21.1c0,13.4-6.7,20.1-20.2,20.1H23.4C10.4,64.7,3.8,58.5,3.3,46V22
	C3.7,9.9,9.9,3.6,22.1,3.3 M25,49c0-3.3-2.7-6-6-6s-6,2.7-6,6l0.1,0.5l0.1,0.4c0.2,1.3,0.7,2.4,1.6,3.3c1.1,1.1,2.7,1.8,4.3,1.8
	c1.6,0,3.1-0.6,4.3-1.8c0.9-0.9,1.5-2,1.7-3.2l0-0.5V49 M44.7,44.8C43.6,45.9,43,47.4,43,49v0.5v0.4c0.2,1.3,0.7,2.4,1.7,3.3
	c2.3,2.3,6.1,2.4,8.5,0c0,0,0,0,0,0c0.9-0.9,1.5-2,1.7-3.2l0.1-0.5V49c0-3.3-2.6-6-5.9-6.1C47.4,42.9,45.8,43.6,44.7,44.8 M40,34.5
	V34c0-3.3-2.6-6-5.9-6.1c-1.6,0-3.2,0.6-4.4,1.8C28.6,30.9,28,32.4,28,34l0,0.5l0,0.4c0.2,1.3,0.7,2.4,1.6,3.3
	c2.3,2.3,6.1,2.4,8.5,0c0,0,0,0,0,0c0.9-0.9,1.5-2,1.7-3.2L40,34.5 M49,13c-3.3,0-6,2.7-6,6v0.5v0.4c0.2,1.3,0.7,2.4,1.7,3.4
	c2.3,2.3,6.1,2.4,8.5,0c0,0,0,0,0,0c0.9-0.9,1.5-2,1.7-3.2l0.1-0.5V19C55,15.7,52.3,13,49,13 M19,13c-3.3,0-6,2.7-6,6l0.1,0.5
	l0.1,0.4c0.2,1.3,0.7,2.4,1.6,3.4c1.1,1.1,2.7,1.8,4.3,1.8c1.6,0,3.1-0.6,4.3-1.8c0.9-0.9,1.5-2,1.7-3.2l0-0.5V19
	C25,15.7,22.3,13,19,13"/>
<path class="st1" d="M21.5,2h34.5c6.6,0,9.9,3.3,9.9,9.9v44.3c0,6.6-3.3,9.8-9.9,9.8H11.9C5.3,66,2,62.7,2,56.2V11.9
	C2,5.3,5.3,2,11.9,2H21.5 M22,3.3C9.9,3.6,3.7,9.9,3.3,22v24c0.4,12.5,7.1,18.7,20.1,18.7h21.2c13.4,0,20.1-6.7,20.2-20.2V23.4
	c0-13-6.3-19.7-18.8-20.1H22"/>
<path class="st2" d="M21.5,2h-9.7C5.3,2,2,5.3,2,11.9v44.3c0,6.6,3.3,9.8,9.9,9.8h44.3c6.6,0,9.9-3.3,9.9-9.8V11.9
	C66,5.3,62.7,2,56.1,2H21.5 M23,0h33.1C64,0,68,4,68,11.9v44.3C68,64,64,68,56.1,68H11.9C4,68,0,63.7,0,55.2V11.9C0,4,4,0,11.9,0H23
	"/>
<path class="st3" d="M19,13c3.3,0,6,2.7,6,6v0.5l0,0.5c-0.2,1.2-0.8,2.3-1.7,3.2C22.1,24.4,20.6,25,19,25c-1.6,0-3.1-0.6-4.3-1.8
	c-0.9-0.9-1.5-2.1-1.6-3.4L13,19.5V19C13,15.7,15.7,13,19,13 M49,13c3.3,0,6,2.7,6,6v0.5l0,0.5c-0.2,1.2-0.8,2.3-1.7,3.2
	c-2.3,2.3-6.1,2.4-8.5,0c0,0,0,0,0,0c-0.9-0.9-1.5-2.1-1.7-3.4v-0.4V19C43.1,15.7,45.8,13,49,13 M40,34.5l0,0.5
	c-0.2,1.2-0.8,2.3-1.7,3.2c-2.3,2.3-6.1,2.4-8.5,0c0,0,0,0,0,0c-0.9-0.9-1.5-2.1-1.6-3.3L28,34.5V34c0-3.3,2.7-6,6-6
	c1.6,0,3.1,0.6,4.2,1.7c1.2,1.1,1.8,2.6,1.8,4.3V34.5 M44.7,44.8c2.3-2.4,6.1-2.4,8.5-0.1c1.2,1.1,1.8,2.7,1.8,4.4v0.5l0,0.5
	c-0.2,1.2-0.8,2.3-1.7,3.2c-2.3,2.3-6.1,2.4-8.5,0c0,0,0,0,0,0c-0.9-0.9-1.5-2.1-1.7-3.3v-0.4V49c0-1.6,0.6-3.1,1.8-4.3 M25,49v0.5
	l0,0.5c-0.2,1.2-0.8,2.3-1.7,3.2C22.1,54.4,20.6,55,19,55c-1.6,0-3.1-0.6-4.3-1.8c-0.9-0.9-1.5-2.1-1.6-3.3L13,49.5V49
	c0-3.3,2.7-6,6-6S25,45.7,25,49"/>
</svg>
