<?xml version="1.0" encoding="utf-8"?>
<!-- Generator: Adobe Illustrator 24.3.0, SVG Export Plug-In . SVG Version: 6.00 Build 0)  -->
<svg version="1.1" id="Слой_1" xmlns="http://www.w3.org/2000/svg" xmlns:xlink="http://www.w3.org/1999/xlink" x="0px" y="0px"
	 viewBox="0 0 68 68" style="enable-background:new 0 0 68 68;" xml:space="preserve">
<style type="text/css">
	.st0{fill:#FFFFFF;}
	.st1{fill:#EEEEEE;}
	.st2{fill:#838383;}
	.st3{fill:#414141;}
</style>
<path class="st0" d="M44.6,3.3h1.3c12.6,0.4,18.9,7.2,18.9,20.1v21.1c0,13.4-6.7,20.1-20.2,20.1H23.4c-12.9,0-19.6-6.2-20-18.7V22
	C3.8,9.9,10,3.6,22.1,3.3H44.6 M49,13c-3.3,0-6,2.7-6,6v0.5l0,0.4c0.2,1.3,0.7,2.4,1.7,3.4c2.3,2.3,6.1,2.4,8.5,0c0,0,0,0,0,0
	c0.9-0.9,1.5-2,1.7-3.2v-0.5V19C54.9,15.7,52.2,13,49,13 M44.8,44.8C43.6,45.9,43,47.4,43,49v0.5l0,0.4c0.2,1.3,0.7,2.4,1.7,3.3
	c2.3,2.3,6.1,2.4,8.5,0c0,0,0,0,0,0c0.9-0.9,1.5-2,1.7-3.2v-0.5V49c0-3.3-2.7-6-6-6C47.3,43,45.8,43.6,44.8,44.8 M55,34
	c0-3.3-2.7-6-6-6s-6,2.7-6,6v0.5l0,0.4c0.2,1.3,0.7,2.4,1.7,3.3c2.3,2.3,6.1,2.4,8.5,0c0,0,0,0,0,0c0.9-0.9,1.5-2,1.7-3.2v-0.5
	L55,34 M25,50v-0.5V49c0-3.3-2.7-6-6-6s-6,2.7-6,6l0.1,0.5v0.4c0.2,1.3,0.7,2.4,1.6,3.3c1.1,1.2,2.7,1.8,4.3,1.8
	c1.6,0,3.1-0.6,4.3-1.8C24.1,52.4,24.7,51.3,25,50 M23.3,38.3c0.9-0.9,1.5-2,1.7-3.2l0-0.5V34c0-3.3-2.7-6-6-6s-6,2.7-6,6l0.1,0.5
	v0.4c0.2,1.3,0.7,2.4,1.6,3.3c1.1,1.2,2.7,1.8,4.3,1.8C20.6,40,22.1,39.4,23.3,38.3 M19,13c-3.3,0-6,2.7-6,6l0.1,0.5v0.4
	c0.2,1.3,0.7,2.4,1.6,3.4c1.1,1.2,2.7,1.8,4.3,1.8c1.6,0,3.1-0.6,4.3-1.8c0.9-0.9,1.5-2,1.7-3.2l0-0.5V19C25,15.7,22.3,13,19,13"/>
<path class="st1" d="M44.6,3.3H22.1C10,3.6,3.8,9.9,3.3,22v24c0.4,12.5,7.1,18.7,20,18.7h21.2c13.4,0,20.2-6.7,20.2-20.2V23.4
	c0-13-6.3-19.7-18.8-20.1H44.6 M45,2h11.1c6.6,0,9.8,3.3,9.8,9.9v44.3c0,6.6-3.3,9.8-9.8,9.8H11.9C5.3,66,2,62.7,2,56.2V11.9
	C2,5.3,5.3,2,11.9,2H45"/>
<path class="st2" d="M45,2H11.9C5.3,2,2,5.3,2,11.9v44.3c0,6.6,3.3,9.8,9.8,9.8h44.3c6.6,0,9.8-3.3,9.8-9.8V11.9
	C66,5.3,62.7,2,56.2,2H45 M46.4,0h9.8C64,0,68,4,68,11.9v44.3C68,64,64,68,56.2,68H11.9C4,68,0,63.7,0.1,55.2V11.9C0.1,4,4,0,11.9,0
	H46.4"/>
<path class="st3" d="M49,13c3.3,0,6,2.7,6,6v0.5V20c-0.2,1.2-0.8,2.3-1.7,3.2c-2.3,2.3-6.1,2.4-8.5,0c0,0,0,0,0,0
	c-0.9-0.9-1.5-2.1-1.7-3.4l0-0.4V19C43,15.7,45.7,13,49,13 M19,13c3.3,0,6,2.7,6,6v0.5l0,0.5c-0.2,1.2-0.8,2.3-1.7,3.2
	C22.1,24.4,20.6,25,19,25c-1.6,0-3.1-0.6-4.3-1.8c-0.9-0.9-1.5-2.1-1.6-3.4v-0.4L13,19C13,15.7,15.7,13,19,13 M23.3,38.3
	C22.1,39.4,20.6,40,19,40c-1.6,0-3.1-0.6-4.3-1.8c-0.9-0.9-1.5-2.1-1.6-3.3v-0.4L13,34c0-3.3,2.7-6,6-6s6,2.7,6,6v0.5l0,0.5
	C24.7,36.3,24.1,37.4,23.3,38.3 M25,50c-0.2,1.2-0.8,2.3-1.7,3.2C22.2,54.4,20.6,55,19,55c-1.6,0-3.1-0.6-4.3-1.8
	c-0.9-0.9-1.5-2.1-1.6-3.3v-0.4L13,49c0-3.3,2.7-6,6-6s6,2.7,6,6v0.5V50 M55,34v0.5V35c-0.2,1.2-0.8,2.3-1.7,3.2
	c-2.3,2.3-6.1,2.4-8.5,0c0,0,0,0,0,0c-0.9-0.9-1.5-2.1-1.7-3.3l0-0.4V34c0-3.3,2.7-6,6-6S55,30.7,55,34 M44.8,44.8
	c2.3-2.3,6.1-2.4,8.5,0c1.1,1.1,1.8,2.7,1.8,4.3v0.5V50c-0.2,1.2-0.8,2.3-1.7,3.2c-2.3,2.3-6.1,2.4-8.5,0c0,0,0,0,0,0
	c-0.9-0.9-1.5-2.1-1.7-3.3l0-0.4V49C43,47.4,43.7,45.9,44.8,44.8"/>
</svg>
